<mxfile host="app.diagrams.net" modified="2023-09-17T11:29:07.087Z" agent="Mozilla/5.0 (Macintosh; Intel Mac OS X 10_15_7) AppleWebKit/537.36 (KHTML, like Gecko) Chrome/116.0.0.0 Safari/537.36" etag="JqIjhZdkaFcxviZWSn4h" version="21.7.4" type="device">
  <diagram name="Page-1" id="zoSbR6VGBXvLc-6SordA">
    <mxGraphModel dx="776" dy="514" grid="1" gridSize="10" guides="1" tooltips="1" connect="1" arrows="1" fold="1" page="1" pageScale="1" pageWidth="850" pageHeight="1100" math="0" shadow="0">
      <root>
        <mxCell id="0" />
        <mxCell id="1" parent="0" />
        <mxCell id="HSt3kR7e06BfaK-hT1Uo-1" value="Rett" style="swimlane;fontStyle=0;childLayout=stackLayout;horizontal=1;startSize=30;horizontalStack=0;resizeParent=1;resizeParentMax=0;resizeLast=0;collapsible=1;marginBottom=0;whiteSpace=wrap;html=1;" vertex="1" parent="1">
          <mxGeometry x="80" y="115" width="320" height="330" as="geometry">
            <mxRectangle x="80" y="115" width="60" height="30" as="alternateBounds" />
          </mxGeometry>
        </mxCell>
        <mxCell id="HSt3kR7e06BfaK-hT1Uo-2" value="-navn: String" style="text;strokeColor=none;fillColor=none;align=left;verticalAlign=middle;spacingLeft=4;spacingRight=4;overflow=hidden;points=[[0,0.5],[1,0.5]];portConstraint=eastwest;rotatable=0;whiteSpace=wrap;html=1;" vertex="1" parent="HSt3kR7e06BfaK-hT1Uo-1">
          <mxGeometry y="30" width="320" height="30" as="geometry" />
        </mxCell>
        <mxCell id="HSt3kR7e06BfaK-hT1Uo-3" value="-type: String" style="text;strokeColor=none;fillColor=none;align=left;verticalAlign=middle;spacingLeft=4;spacingRight=4;overflow=hidden;points=[[0,0.5],[1,0.5]];portConstraint=eastwest;rotatable=0;whiteSpace=wrap;html=1;" vertex="1" parent="HSt3kR7e06BfaK-hT1Uo-1">
          <mxGeometry y="60" width="320" height="30" as="geometry" />
        </mxCell>
        <mxCell id="HSt3kR7e06BfaK-hT1Uo-4" value="-pris: int" style="text;strokeColor=none;fillColor=none;align=left;verticalAlign=middle;spacingLeft=4;spacingRight=4;overflow=hidden;points=[[0,0.5],[1,0.5]];portConstraint=eastwest;rotatable=0;whiteSpace=wrap;html=1;" vertex="1" parent="HSt3kR7e06BfaK-hT1Uo-1">
          <mxGeometry y="90" width="320" height="30" as="geometry" />
        </mxCell>
        <mxCell id="HSt3kR7e06BfaK-hT1Uo-5" value="-oppskrift: String" style="text;strokeColor=none;fillColor=none;align=left;verticalAlign=middle;spacingLeft=4;spacingRight=4;overflow=hidden;points=[[0,0.5],[1,0.5]];portConstraint=eastwest;rotatable=0;whiteSpace=wrap;html=1;" vertex="1" parent="HSt3kR7e06BfaK-hT1Uo-1">
          <mxGeometry y="120" width="320" height="30" as="geometry" />
        </mxCell>
        <mxCell id="HSt3kR7e06BfaK-hT1Uo-22" value="+Rett(navn: String, type: String, pris: int, oppskrift: String)" style="text;strokeColor=none;fillColor=none;align=left;verticalAlign=middle;spacingLeft=4;spacingRight=4;overflow=hidden;points=[[0,0.5],[1,0.5]];portConstraint=eastwest;rotatable=0;whiteSpace=wrap;html=1;" vertex="1" parent="HSt3kR7e06BfaK-hT1Uo-1">
          <mxGeometry y="150" width="320" height="30" as="geometry" />
        </mxCell>
        <mxCell id="HSt3kR7e06BfaK-hT1Uo-9" value="" style="endArrow=none;html=1;rounded=0;entryX=1.003;entryY=0.001;entryDx=0;entryDy=0;entryPerimeter=0;" edge="1" parent="HSt3kR7e06BfaK-hT1Uo-1" target="HSt3kR7e06BfaK-hT1Uo-22">
          <mxGeometry width="50" height="50" relative="1" as="geometry">
            <mxPoint y="150" as="sourcePoint" />
            <mxPoint x="110" y="150" as="targetPoint" />
          </mxGeometry>
        </mxCell>
        <mxCell id="HSt3kR7e06BfaK-hT1Uo-8" value="+getNavn() : String" style="text;strokeColor=none;fillColor=none;align=left;verticalAlign=middle;spacingLeft=4;spacingRight=4;overflow=hidden;points=[[0,0.5],[1,0.5]];portConstraint=eastwest;rotatable=0;whiteSpace=wrap;html=1;" vertex="1" parent="HSt3kR7e06BfaK-hT1Uo-1">
          <mxGeometry y="180" width="320" height="30" as="geometry" />
        </mxCell>
        <mxCell id="HSt3kR7e06BfaK-hT1Uo-7" value="+getType() : String" style="text;strokeColor=none;fillColor=none;align=left;verticalAlign=middle;spacingLeft=4;spacingRight=4;overflow=hidden;points=[[0,0.5],[1,0.5]];portConstraint=eastwest;rotatable=0;whiteSpace=wrap;html=1;" vertex="1" parent="HSt3kR7e06BfaK-hT1Uo-1">
          <mxGeometry y="210" width="320" height="30" as="geometry" />
        </mxCell>
        <mxCell id="HSt3kR7e06BfaK-hT1Uo-6" value="+getPris() : int" style="text;strokeColor=none;fillColor=none;align=left;verticalAlign=middle;spacingLeft=4;spacingRight=4;overflow=hidden;points=[[0,0.5],[1,0.5]];portConstraint=eastwest;rotatable=0;whiteSpace=wrap;html=1;" vertex="1" parent="HSt3kR7e06BfaK-hT1Uo-1">
          <mxGeometry y="240" width="320" height="30" as="geometry" />
        </mxCell>
        <mxCell id="HSt3kR7e06BfaK-hT1Uo-10" value="+getOppskrift() : String" style="text;strokeColor=none;fillColor=none;align=left;verticalAlign=middle;spacingLeft=4;spacingRight=4;overflow=hidden;points=[[0,0.5],[1,0.5]];portConstraint=eastwest;rotatable=0;whiteSpace=wrap;html=1;" vertex="1" parent="HSt3kR7e06BfaK-hT1Uo-1">
          <mxGeometry y="270" width="320" height="30" as="geometry" />
        </mxCell>
        <mxCell id="HSt3kR7e06BfaK-hT1Uo-11" value="+toString() : String" style="text;strokeColor=none;fillColor=none;align=left;verticalAlign=middle;spacingLeft=4;spacingRight=4;overflow=hidden;points=[[0,0.5],[1,0.5]];portConstraint=eastwest;rotatable=0;whiteSpace=wrap;html=1;" vertex="1" parent="HSt3kR7e06BfaK-hT1Uo-1">
          <mxGeometry y="300" width="320" height="30" as="geometry" />
        </mxCell>
        <mxCell id="HSt3kR7e06BfaK-hT1Uo-12" value="Meny" style="swimlane;fontStyle=0;childLayout=stackLayout;horizontal=1;startSize=30;horizontalStack=0;resizeParent=1;resizeParentMax=0;resizeLast=0;collapsible=1;marginBottom=0;whiteSpace=wrap;html=1;" vertex="1" parent="1">
          <mxGeometry x="440" y="115" width="319" height="330" as="geometry" />
        </mxCell>
        <mxCell id="HSt3kR7e06BfaK-hT1Uo-13" value="-navn: String" style="text;strokeColor=none;fillColor=none;align=left;verticalAlign=middle;spacingLeft=4;spacingRight=4;overflow=hidden;points=[[0,0.5],[1,0.5]];portConstraint=eastwest;rotatable=0;whiteSpace=wrap;html=1;" vertex="1" parent="HSt3kR7e06BfaK-hT1Uo-12">
          <mxGeometry y="30" width="319" height="30" as="geometry" />
        </mxCell>
        <mxCell id="HSt3kR7e06BfaK-hT1Uo-14" value="-retter: List&amp;lt;Rett&amp;gt;" style="text;strokeColor=none;fillColor=none;align=left;verticalAlign=middle;spacingLeft=4;spacingRight=4;overflow=hidden;points=[[0,0.5],[1,0.5]];portConstraint=eastwest;rotatable=0;whiteSpace=wrap;html=1;" vertex="1" parent="HSt3kR7e06BfaK-hT1Uo-12">
          <mxGeometry y="60" width="319" height="30" as="geometry" />
        </mxCell>
        <mxCell id="HSt3kR7e06BfaK-hT1Uo-41" style="text;strokeColor=none;fillColor=none;align=left;verticalAlign=middle;spacingLeft=4;spacingRight=4;overflow=hidden;points=[[0,0.5],[1,0.5]];portConstraint=eastwest;rotatable=0;whiteSpace=wrap;html=1;" vertex="1" parent="HSt3kR7e06BfaK-hT1Uo-12">
          <mxGeometry y="90" width="319" height="30" as="geometry" />
        </mxCell>
        <mxCell id="HSt3kR7e06BfaK-hT1Uo-42" style="text;strokeColor=none;fillColor=none;align=left;verticalAlign=middle;spacingLeft=4;spacingRight=4;overflow=hidden;points=[[0,0.5],[1,0.5]];portConstraint=eastwest;rotatable=0;whiteSpace=wrap;html=1;" vertex="1" parent="HSt3kR7e06BfaK-hT1Uo-12">
          <mxGeometry y="120" width="319" height="30" as="geometry" />
        </mxCell>
        <mxCell id="HSt3kR7e06BfaK-hT1Uo-17" value="+Meny(navn: String)" style="text;strokeColor=none;fillColor=none;align=left;verticalAlign=middle;spacingLeft=4;spacingRight=4;overflow=hidden;points=[[0,0.5],[1,0.5]];portConstraint=eastwest;rotatable=0;whiteSpace=wrap;html=1;" vertex="1" parent="HSt3kR7e06BfaK-hT1Uo-12">
          <mxGeometry y="150" width="319" height="30" as="geometry" />
        </mxCell>
        <mxCell id="HSt3kR7e06BfaK-hT1Uo-24" value="+getNavn() : String" style="text;strokeColor=none;fillColor=none;align=left;verticalAlign=middle;spacingLeft=4;spacingRight=4;overflow=hidden;points=[[0,0.5],[1,0.5]];portConstraint=eastwest;rotatable=0;whiteSpace=wrap;html=1;" vertex="1" parent="HSt3kR7e06BfaK-hT1Uo-12">
          <mxGeometry y="180" width="319" height="30" as="geometry" />
        </mxCell>
        <mxCell id="HSt3kR7e06BfaK-hT1Uo-25" value="+getRetter() : List&amp;lt;Rett&amp;gt;" style="text;strokeColor=none;fillColor=none;align=left;verticalAlign=middle;spacingLeft=4;spacingRight=4;overflow=hidden;points=[[0,0.5],[1,0.5]];portConstraint=eastwest;rotatable=0;whiteSpace=wrap;html=1;" vertex="1" parent="HSt3kR7e06BfaK-hT1Uo-12">
          <mxGeometry y="210" width="319" height="30" as="geometry" />
        </mxCell>
        <mxCell id="HSt3kR7e06BfaK-hT1Uo-27" value="+leggTilRett(rett: Rett) : void" style="text;strokeColor=none;fillColor=none;align=left;verticalAlign=middle;spacingLeft=4;spacingRight=4;overflow=hidden;points=[[0,0.5],[1,0.5]];portConstraint=eastwest;rotatable=0;whiteSpace=wrap;html=1;" vertex="1" parent="HSt3kR7e06BfaK-hT1Uo-12">
          <mxGeometry y="240" width="319" height="30" as="geometry" />
        </mxCell>
        <mxCell id="HSt3kR7e06BfaK-hT1Uo-26" value="+toString() : String" style="text;strokeColor=none;fillColor=none;align=left;verticalAlign=middle;spacingLeft=4;spacingRight=4;overflow=hidden;points=[[0,0.5],[1,0.5]];portConstraint=eastwest;rotatable=0;whiteSpace=wrap;html=1;" vertex="1" parent="HSt3kR7e06BfaK-hT1Uo-12">
          <mxGeometry y="270" width="319" height="30" as="geometry" />
        </mxCell>
        <mxCell id="HSt3kR7e06BfaK-hT1Uo-43" style="text;strokeColor=none;fillColor=none;align=left;verticalAlign=middle;spacingLeft=4;spacingRight=4;overflow=hidden;points=[[0,0.5],[1,0.5]];portConstraint=eastwest;rotatable=0;whiteSpace=wrap;html=1;" vertex="1" parent="HSt3kR7e06BfaK-hT1Uo-12">
          <mxGeometry y="300" width="319" height="30" as="geometry" />
        </mxCell>
        <mxCell id="HSt3kR7e06BfaK-hT1Uo-19" value="" style="endArrow=none;html=1;rounded=0;exitX=-0.001;exitY=1.051;exitDx=0;exitDy=0;exitPerimeter=0;" edge="1" parent="HSt3kR7e06BfaK-hT1Uo-12" source="HSt3kR7e06BfaK-hT1Uo-42">
          <mxGeometry width="50" height="50" relative="1" as="geometry">
            <mxPoint y="90" as="sourcePoint" />
            <mxPoint x="320" y="155" as="targetPoint" />
          </mxGeometry>
        </mxCell>
        <mxCell id="HSt3kR7e06BfaK-hT1Uo-28" value="MenyRegister" style="swimlane;fontStyle=0;childLayout=stackLayout;horizontal=1;startSize=30;horizontalStack=0;resizeParent=1;resizeParentMax=0;resizeLast=0;collapsible=1;marginBottom=0;whiteSpace=wrap;html=1;" vertex="1" parent="1">
          <mxGeometry x="215" y="480" width="420" height="360" as="geometry" />
        </mxCell>
        <mxCell id="HSt3kR7e06BfaK-hT1Uo-29" value="-menyer : List&amp;lt;Meny&amp;gt;" style="text;strokeColor=none;fillColor=none;align=left;verticalAlign=middle;spacingLeft=4;spacingRight=4;overflow=hidden;points=[[0,0.5],[1,0.5]];portConstraint=eastwest;rotatable=0;whiteSpace=wrap;html=1;" vertex="1" parent="HSt3kR7e06BfaK-hT1Uo-28">
          <mxGeometry y="30" width="420" height="30" as="geometry" />
        </mxCell>
        <mxCell id="HSt3kR7e06BfaK-hT1Uo-30" value="-alleRetter : List&amp;lt;Rett&amp;gt;" style="text;strokeColor=none;fillColor=none;align=left;verticalAlign=middle;spacingLeft=4;spacingRight=4;overflow=hidden;points=[[0,0.5],[1,0.5]];portConstraint=eastwest;rotatable=0;whiteSpace=wrap;html=1;" vertex="1" parent="HSt3kR7e06BfaK-hT1Uo-28">
          <mxGeometry y="60" width="420" height="30" as="geometry" />
        </mxCell>
        <mxCell id="HSt3kR7e06BfaK-hT1Uo-31" value="+MenyRegister()" style="text;strokeColor=none;fillColor=none;align=left;verticalAlign=middle;spacingLeft=4;spacingRight=4;overflow=hidden;points=[[0,0.5],[1,0.5]];portConstraint=eastwest;rotatable=0;whiteSpace=wrap;html=1;" vertex="1" parent="HSt3kR7e06BfaK-hT1Uo-28">
          <mxGeometry y="90" width="420" height="30" as="geometry" />
        </mxCell>
        <mxCell id="HSt3kR7e06BfaK-hT1Uo-34" value="+opprettOgLeggTilNyMeny(navn: String) : Meny&amp;nbsp;" style="text;strokeColor=none;fillColor=none;align=left;verticalAlign=middle;spacingLeft=4;spacingRight=4;overflow=hidden;points=[[0,0.5],[1,0.5]];portConstraint=eastwest;rotatable=0;whiteSpace=wrap;html=1;" vertex="1" parent="HSt3kR7e06BfaK-hT1Uo-28">
          <mxGeometry y="120" width="420" height="30" as="geometry" />
        </mxCell>
        <mxCell id="HSt3kR7e06BfaK-hT1Uo-33" value="+leggTilRetterTilMeny(retter: List&amp;lt;Rett&amp;gt;, menynavn: String) : void" style="text;strokeColor=none;fillColor=none;align=left;verticalAlign=middle;spacingLeft=4;spacingRight=4;overflow=hidden;points=[[0,0.5],[1,0.5]];portConstraint=eastwest;rotatable=0;whiteSpace=wrap;html=1;" vertex="1" parent="HSt3kR7e06BfaK-hT1Uo-28">
          <mxGeometry y="150" width="420" height="30" as="geometry" />
        </mxCell>
        <mxCell id="HSt3kR7e06BfaK-hT1Uo-32" value="+opprettNyRett(navn: String, type: String, pris: int, oppskrift: String) : Rett" style="text;strokeColor=none;fillColor=none;align=left;verticalAlign=middle;spacingLeft=4;spacingRight=4;overflow=hidden;points=[[0,0.5],[1,0.5]];portConstraint=eastwest;rotatable=0;whiteSpace=wrap;html=1;" vertex="1" parent="HSt3kR7e06BfaK-hT1Uo-28">
          <mxGeometry y="180" width="420" height="30" as="geometry" />
        </mxCell>
        <mxCell id="HSt3kR7e06BfaK-hT1Uo-37" value="+getMenyer() : List&amp;lt;Meny&amp;gt;" style="text;strokeColor=none;fillColor=none;align=left;verticalAlign=middle;spacingLeft=4;spacingRight=4;overflow=hidden;points=[[0,0.5],[1,0.5]];portConstraint=eastwest;rotatable=0;whiteSpace=wrap;html=1;" vertex="1" parent="HSt3kR7e06BfaK-hT1Uo-28">
          <mxGeometry y="210" width="420" height="30" as="geometry" />
        </mxCell>
        <mxCell id="HSt3kR7e06BfaK-hT1Uo-36" value="+getAlleRetter() : List&amp;lt;Rett&amp;gt;" style="text;strokeColor=none;fillColor=none;align=left;verticalAlign=middle;spacingLeft=4;spacingRight=4;overflow=hidden;points=[[0,0.5],[1,0.5]];portConstraint=eastwest;rotatable=0;whiteSpace=wrap;html=1;" vertex="1" parent="HSt3kR7e06BfaK-hT1Uo-28">
          <mxGeometry y="240" width="420" height="30" as="geometry" />
        </mxCell>
        <mxCell id="HSt3kR7e06BfaK-hT1Uo-35" value="+finnRett(navn: String) : Rett" style="text;strokeColor=none;fillColor=none;align=left;verticalAlign=middle;spacingLeft=4;spacingRight=4;overflow=hidden;points=[[0,0.5],[1,0.5]];portConstraint=eastwest;rotatable=0;whiteSpace=wrap;html=1;" vertex="1" parent="HSt3kR7e06BfaK-hT1Uo-28">
          <mxGeometry y="270" width="420" height="30" as="geometry" />
        </mxCell>
        <mxCell id="HSt3kR7e06BfaK-hT1Uo-40" value="+retterAvSammeType(type: String) : List&amp;lt;Rett&amp;gt;" style="text;strokeColor=none;fillColor=none;align=left;verticalAlign=middle;spacingLeft=4;spacingRight=4;overflow=hidden;points=[[0,0.5],[1,0.5]];portConstraint=eastwest;rotatable=0;whiteSpace=wrap;html=1;" vertex="1" parent="HSt3kR7e06BfaK-hT1Uo-28">
          <mxGeometry y="300" width="420" height="30" as="geometry" />
        </mxCell>
        <mxCell id="HSt3kR7e06BfaK-hT1Uo-39" value="+menyerInnenforPris(minstePris: int, hoyestePris: int) : List&amp;lt;Meny&amp;gt;" style="text;strokeColor=none;fillColor=none;align=left;verticalAlign=middle;spacingLeft=4;spacingRight=4;overflow=hidden;points=[[0,0.5],[1,0.5]];portConstraint=eastwest;rotatable=0;whiteSpace=wrap;html=1;" vertex="1" parent="HSt3kR7e06BfaK-hT1Uo-28">
          <mxGeometry y="330" width="420" height="30" as="geometry" />
        </mxCell>
      </root>
    </mxGraphModel>
  </diagram>
</mxfile>
